<svg width="42" height="47" viewBox="0 0 42 47" fill="none" xmlns="http://www.w3.org/2000/svg">
<path d="M17.9091 46.5455H0V0H17.7273C22.5152 0 26.6515 0.931819 30.1364 2.79546C33.6364 4.64394 36.3333 7.31061 38.2273 10.7955C40.1364 14.2652 41.0909 18.4242 41.0909 23.2727C41.0909 28.1212 40.1439 32.2879 38.25 35.7727C36.3561 39.2424 33.6742 41.9091 30.2045 43.7727C26.7348 45.6212 22.6364 46.5455 17.9091 46.5455ZM12.6364 35.8182H17.4545C19.7576 35.8182 21.7197 35.447 23.3409 34.7045C24.9773 33.9621 26.2197 32.6818 27.0682 30.8636C27.9318 29.0455 28.3636 26.5152 28.3636 23.2727C28.3636 20.0303 27.9242 17.5 27.0455 15.6818C26.1818 13.8636 24.9091 12.5833 23.2273 11.8409C21.5606 11.0985 19.5152 10.7273 17.0909 10.7273H12.6364V35.8182Z" fill="#FF9100"/>
</svg>
