<svg width="46" height="48" viewBox="0 0 46 48" fill="none" xmlns="http://www.w3.org/2000/svg">
<path d="M45.2727 23.9091C45.2727 29.0909 44.2652 33.4621 42.25 37.0227C40.2348 40.5682 37.5152 43.2576 34.0909 45.0909C30.6667 46.9091 26.8485 47.8182 22.6364 47.8182C18.3939 47.8182 14.5606 46.9015 11.1364 45.0682C7.72727 43.2197 5.01515 40.5227 3 36.9773C1 33.4167 0 29.0606 0 23.9091C0 18.7273 1 14.3636 3 10.8182C5.01515 7.25758 7.72727 4.56818 11.1364 2.75C14.5606 0.916667 18.3939 0 22.6364 0C26.8485 0 30.6667 0.916667 34.0909 2.75C37.5152 4.56818 40.2348 7.25758 42.25 10.8182C44.2652 14.3636 45.2727 18.7273 45.2727 23.9091ZM32.2727 23.9091C32.2727 21.1212 31.9015 18.7727 31.1591 16.8636C30.4318 14.9394 29.3485 13.4848 27.9091 12.5C26.4848 11.5 24.7273 11 22.6364 11C20.5455 11 18.7803 11.5 17.3409 12.5C15.9167 13.4848 14.8333 14.9394 14.0909 16.8636C13.3636 18.7727 13 21.1212 13 23.9091C13 26.697 13.3636 29.053 14.0909 30.9773C14.8333 32.8864 15.9167 34.3409 17.3409 35.3409C18.7803 36.3258 20.5455 36.8182 22.6364 36.8182C24.7273 36.8182 26.4848 36.3258 27.9091 35.3409C29.3485 34.3409 30.4318 32.8864 31.1591 30.9773C31.9015 29.053 32.2727 26.697 32.2727 23.9091Z" fill="#FF9100"/>
</svg>
