<svg width="38" height="63" viewBox="0 0 38 63" fill="none" xmlns="http://www.w3.org/2000/svg">
<g id="LETTER J">
<path id="J" d="M22.2548 15.4502H34.7094V47.3593C34.6942 50.3896 33.9291 53.0563 32.4139 55.3593C30.9139 57.6472 28.8382 59.435 26.1866 60.7229C23.5503 61.9957 20.5124 62.632 17.073 62.632C14.0882 62.632 11.3609 62.1169 8.89119 61.0866C6.42149 60.0411 4.4518 58.4047 2.9821 56.1775C1.5124 53.935 0.785129 51.026 0.800281 47.4502H13.4366C13.4821 48.6169 13.6791 49.6017 14.0276 50.4047C14.3912 51.2078 14.8912 51.8138 15.5276 52.2229C16.1791 52.6169 16.9669 52.8138 17.8912 52.8138C18.8306 52.8138 19.6185 52.6093 20.2548 52.2002C20.9063 51.7911 21.3988 51.185 21.7321 50.382C22.0654 49.5638 22.2397 48.5563 22.2548 47.3593V15.4502Z" fill="#77A842"/>
</g>
</svg>
