<svg width="42" height="63" viewBox="0 0 42 63" fill="none" xmlns="http://www.w3.org/2000/svg">
<g id="LETTER S">
<path id="S" d="M27.6726 30.0319C27.5514 28.5168 26.9832 27.3349 25.9681 26.4865C24.9681 25.638 23.4454 25.2137 21.3999 25.2137C20.0969 25.2137 19.0287 25.3728 18.1954 25.691C17.3772 25.994 16.7711 26.4107 16.3772 26.941C15.9832 27.4713 15.7787 28.0774 15.7635 28.7592C15.7332 29.3198 15.8317 29.8274 16.059 30.2819C16.3014 30.7213 16.6802 31.1228 17.1954 31.4865C17.7105 31.8349 18.3696 32.1531 19.1726 32.441C19.9757 32.7289 20.9302 32.9865 22.0363 33.2137L25.8544 34.0319C28.4302 34.5774 30.6348 35.2971 32.4681 36.191C34.3014 37.0849 35.8014 38.138 36.9681 39.3501C38.1348 40.5471 38.9908 41.8956 39.5363 43.3956C40.0969 44.8956 40.3848 46.5319 40.3999 48.3046C40.3848 51.3652 39.6196 53.9562 38.1045 56.0774C36.5893 58.1986 34.4226 59.8122 31.6044 60.9183C28.8014 62.0243 25.4302 62.5774 21.4908 62.5774C17.4454 62.5774 13.9151 61.9789 10.8999 60.7819C7.8999 59.5849 5.56657 57.744 3.8999 55.2592C2.24839 52.7592 1.41505 49.5622 1.3999 45.6683H13.3999C13.4757 47.0925 13.8317 48.2895 14.4681 49.2592C15.1044 50.2289 15.9984 50.9637 17.1499 51.4637C18.3166 51.9637 19.7029 52.2137 21.309 52.2137C22.6575 52.2137 23.7863 52.0471 24.6954 51.7137C25.6044 51.3804 26.2938 50.9183 26.7635 50.3274C27.2332 49.7365 27.4757 49.0622 27.4908 48.3046C27.4757 47.5925 27.2408 46.9713 26.7863 46.441C26.3469 45.8956 25.6196 45.4107 24.6044 44.9865C23.5893 44.5471 22.2181 44.138 20.4908 43.7592L15.8544 42.7592C11.7332 41.8652 8.48324 40.3728 6.10445 38.2819C3.74081 36.1759 2.56657 33.3046 2.58172 29.6683C2.56657 26.7137 3.35445 24.1304 4.94536 21.9183C6.55142 19.691 8.77111 17.9562 11.6044 16.7137C14.4529 15.4713 17.7181 14.8501 21.3999 14.8501C25.1575 14.8501 28.4075 15.4789 31.1499 16.7365C33.8923 17.994 36.006 19.7668 37.4908 22.0546C38.9908 24.3274 39.7484 26.9865 39.7635 30.0319H27.6726Z" fill="#77A842"/>
</g>
</svg>
