<svg width="48" height="63" viewBox="0 0 48 63" fill="none" xmlns="http://www.w3.org/2000/svg">
<g id="LETTER C">
<path id="C" d="M45 32.538H32.075C31.9833 31.4512 31.7389 30.4653 31.3417 29.5803C30.9597 28.6953 30.425 27.9346 29.7375 27.298C29.0653 26.6459 28.2479 26.1491 27.2854 25.8075C26.3229 25.4504 25.2306 25.2719 24.0083 25.2719C21.8694 25.2719 20.059 25.7997 18.5771 26.8555C17.1104 27.9113 15.9951 29.4251 15.2312 31.3969C14.4826 33.3687 14.1083 35.7364 14.1083 38.5C14.1083 41.4189 14.4903 43.8642 15.2542 45.836C16.0333 47.7923 17.1562 49.2673 18.6229 50.2609C20.0896 51.2391 21.8542 51.7281 23.9167 51.7281C25.0931 51.7281 26.1472 51.5806 27.0792 51.2856C28.0111 50.9751 28.8208 50.5326 29.5083 49.9582C30.1958 49.3837 30.7535 48.6928 31.1812 47.8855C31.6243 47.0626 31.9222 46.1388 32.075 45.1141L45 45.2072C44.8472 47.2256 44.2896 49.2828 43.3271 51.3788C42.3646 53.4593 40.9972 55.3845 39.225 57.1545C37.468 58.9089 35.291 60.3218 32.6937 61.3931C30.0965 62.4644 27.0792 63 23.6417 63C19.3333 63 15.4681 62.0607 12.0458 60.182C8.63889 58.3034 5.94236 55.5398 3.95625 51.8912C1.98542 48.2426 1 43.7788 1 38.5C1 33.1901 2.00833 28.7186 4.025 25.0856C6.04167 21.4369 8.76111 18.6811 12.1833 16.818C15.6056 14.9393 19.425 14 23.6417 14C26.6056 14 29.3326 14.4114 31.8229 15.2343C34.3132 16.0572 36.4979 17.2605 38.3771 18.8441C40.2562 20.4122 41.7687 22.3452 42.9146 24.6431C44.0604 26.9409 44.7556 29.5726 45 32.538Z" fill="#77A842"/>
</g>
</svg>
