<svg width="47" height="62" viewBox="0 0 47 62" fill="none" xmlns="http://www.w3.org/2000/svg">
<g id="LETTER D">
<path id="D" d="M20.8091 61.9957H2.90002V15.4502H20.6273C25.4152 15.4502 29.5515 16.382 33.0364 18.2457C36.5364 20.0941 39.2334 22.7608 41.1273 26.2457C43.0364 29.7153 43.9909 33.8744 43.9909 38.7229C43.9909 43.5714 43.044 47.7381 41.15 51.2229C39.2561 54.6926 36.5743 57.3593 33.1046 59.2229C29.6349 61.0714 25.5364 61.9957 20.8091 61.9957ZM15.5364 51.2684H20.3546C22.6576 51.2684 24.6197 50.8972 26.2409 50.1547C27.8773 49.4123 29.1197 48.132 29.9682 46.3138C30.8318 44.4956 31.2637 41.9653 31.2637 38.7229C31.2637 35.4805 30.8243 32.9502 29.9455 31.132C29.0818 29.3138 27.8091 28.0335 26.1273 27.2911C24.4606 26.5487 22.4152 26.1775 19.9909 26.1775H15.5364V51.2684Z" fill="#77A842"/>
</g>
</svg>
