<svg width="51" height="63" viewBox="0 0 51 63" fill="none" xmlns="http://www.w3.org/2000/svg">
<g id="LETTER O">
<path id="O" d="M48 39C48 44.2015 46.9985 48.5894 44.9955 52.1635C42.9925 55.7224 40.2892 58.4221 36.8855 60.2624C33.4819 62.0875 29.6867 63 25.5 63C21.2831 63 17.4729 62.0798 14.0693 60.2395C10.6807 58.384 7.98494 55.6768 5.98193 52.1179C3.99398 48.5437 3 44.1711 3 39C3 33.7985 3.99398 29.4183 5.98193 25.8593C7.98494 22.2852 10.6807 19.5856 14.0693 17.7605C17.4729 15.9202 21.2831 15 25.5 15C29.6867 15 33.4819 15.9202 36.8855 17.7605C40.2892 19.5856 42.9925 22.2852 44.9955 25.8593C46.9985 29.4183 48 33.7985 48 39ZM35.0783 39C35.0783 36.2015 34.7093 33.8441 33.9714 31.9278C33.2485 29.9962 32.1717 28.5361 30.741 27.5475C29.3253 26.5437 27.5783 26.0418 25.5 26.0418C23.4217 26.0418 21.6672 26.5437 20.2364 27.5475C18.8208 28.5361 17.744 29.9962 17.006 31.9278C16.2831 33.8441 15.9217 36.2015 15.9217 39C15.9217 41.7985 16.2831 44.1635 17.006 46.0951C17.744 48.0114 18.8208 49.4715 20.2364 50.4753C21.6672 51.4639 23.4217 51.9582 25.5 51.9582C27.5783 51.9582 29.3253 51.4639 30.741 50.4753C32.1717 49.4715 33.2485 48.0114 33.9714 46.0951C34.7093 44.1635 35.0783 41.7985 35.0783 39Z" fill="#77A842"/>
</g>
</svg>
