<svg width="42" height="62" viewBox="0 0 42 62" fill="none" xmlns="http://www.w3.org/2000/svg">
<g id="LETTER P">
<path id="P" d="M2.80005 61.9957V15.4502H22.891C26.3455 15.4502 29.3682 16.132 31.9591 17.4957C34.5501 18.8593 36.5652 20.776 38.0046 23.2457C39.444 25.7153 40.1637 28.6017 40.1637 31.9047C40.1637 35.2381 39.4213 38.1244 37.9364 40.5638C36.4667 43.0032 34.3985 44.882 31.7319 46.2002C29.0804 47.5184 25.9819 48.1775 22.4364 48.1775H10.4364V38.3593H19.891C21.3758 38.3593 22.641 38.1017 23.6864 37.5866C24.747 37.0563 25.5576 36.3063 26.1182 35.3366C26.694 34.3669 26.9819 33.2229 26.9819 31.9047C26.9819 30.5714 26.694 29.435 26.1182 28.4957C25.5576 27.5411 24.747 26.8138 23.6864 26.3138C22.641 25.7987 21.3758 25.5411 19.891 25.5411H15.4364V61.9957H2.80005Z" fill="#77A842"/>
</g>
</svg>
