<svg width="51" height="65" viewBox="0 0 51 65" fill="none" xmlns="http://www.w3.org/2000/svg">
<g id="LETTER Q">
<path id="Q" d="M21.0361 44.5332H30.7755L34.2926 48.9318L40.2445 55.6643L48 65H36.9078L31.4068 58.6266L27.7094 53.3303L21.0361 44.5332ZM47.9098 38.6086C47.9098 43.7253 46.9103 48.0416 44.9113 51.5574C42.9123 55.0583 40.2144 57.7139 36.8176 59.5242C33.4208 61.3196 29.6333 62.2172 25.4549 62.2172C21.2465 62.2172 17.4439 61.3121 14.0471 59.5018C10.6653 57.6765 7.97495 55.0135 5.97595 51.5126C3.99198 47.9967 3 43.6954 3 38.6086C3 33.4919 3.99198 29.1831 5.97595 25.6822C7.97495 22.1664 10.6653 19.5108 14.0471 17.7154C17.4439 15.9051 21.2465 15 25.4549 15C29.6333 15 33.4208 15.9051 36.8176 17.7154C40.2144 19.5108 42.9123 22.1664 44.9113 25.6822C46.9103 29.1831 47.9098 33.4919 47.9098 38.6086ZM35.014 38.6086C35.014 35.8558 34.6458 33.5368 33.9093 31.6517C33.1879 29.7516 32.1132 28.3154 30.6854 27.3429C29.2725 26.3555 27.5291 25.8618 25.4549 25.8618C23.3808 25.8618 21.6298 26.3555 20.2019 27.3429C18.7891 28.3154 17.7144 29.7516 16.978 31.6517C16.2565 33.5368 15.8958 35.8558 15.8958 38.6086C15.8958 41.3615 16.2565 43.6879 16.978 45.588C17.7144 47.4731 18.7891 48.9093 20.2019 49.8968C21.6298 50.8692 23.3808 51.3555 25.4549 51.3555C27.5291 51.3555 29.2725 50.8692 30.6854 49.8968C32.1132 48.9093 33.1879 47.4731 33.9093 45.588C34.6458 43.6879 35.014 41.3615 35.014 38.6086Z" fill="#77A842"/>
</g>
</svg>
