<svg width="43" height="62" viewBox="0 0 43 62" fill="none" xmlns="http://www.w3.org/2000/svg">
<g id="LETTER R">
<path id="R" d="M2.80005 61.9957V15.4502H22.891C26.3455 15.4502 29.3682 16.079 31.9591 17.3366C34.5501 18.5941 36.5652 20.4047 38.0046 22.7684C39.444 25.132 40.1637 27.9653 40.1637 31.2684C40.1637 34.6017 39.4213 37.4123 37.9364 39.7002C36.4667 41.9881 34.3985 43.7153 31.7319 44.882C29.0804 46.0487 25.9819 46.632 22.4364 46.632H10.4364V36.8138H19.891C21.3758 36.8138 22.641 36.632 23.6864 36.2684C24.747 35.8896 25.5576 35.2911 26.1182 34.4729C26.694 33.6547 26.9819 32.5866 26.9819 31.2684C26.9819 29.935 26.694 28.8517 26.1182 28.0184C25.5576 27.1699 24.747 26.5487 23.6864 26.1547C22.641 25.7456 21.3758 25.5411 19.891 25.5411H15.4364V61.9957H2.80005ZM30.0728 40.632L41.7091 61.9957H27.9819L16.6182 40.632H30.0728Z" fill="#77A842"/>
</g>
</svg>
