<svg width="49" height="63" viewBox="0 0 49 63" fill="none" xmlns="http://www.w3.org/2000/svg">
<g id="LETTER G">
<path id="G" d="M33.4091 31C33.2121 30.197 32.9015 29.4924 32.4773 28.8864C32.053 28.2652 31.5227 27.7424 30.8864 27.3182C30.2652 26.8788 29.5379 26.553 28.7045 26.3409C27.8864 26.1136 26.9848 26 26 26C23.8788 26 22.0682 26.5076 20.5682 27.5227C19.0833 28.5379 17.947 30 17.1591 31.9091C16.3864 33.8182 16 36.1212 16 38.8182C16 41.5455 16.3712 43.8788 17.1136 45.8182C17.8561 47.7576 18.9621 49.2424 20.4318 50.2727C21.9015 51.303 23.7273 51.8182 25.9091 51.8182C27.8333 51.8182 29.4318 51.5379 30.7045 50.9773C31.9924 50.4167 32.9545 49.6212 33.5909 48.5909C34.2273 47.5606 34.5455 46.3485 34.5455 44.9545L36.7273 45.1818H26.0909V36.1818H46.7273V42.6364C46.7273 46.8788 45.8258 50.5076 44.0227 53.5227C42.2348 56.5227 39.7652 58.8258 36.6136 60.4318C33.4773 62.0227 29.8788 62.8182 25.8182 62.8182C21.2879 62.8182 17.3106 61.8561 13.8864 59.9318C10.4621 58.0076 7.78788 55.2652 5.86364 51.7045C3.95455 48.1439 3 43.9091 3 39C3 35.1515 3.58333 31.7424 4.75 28.7727C5.93182 25.803 7.56818 23.2955 9.65909 21.25C11.75 19.1894 14.1667 17.6364 16.9091 16.5909C19.6515 15.5303 22.5909 15 25.7273 15C28.4848 15 31.0455 15.3939 33.4091 16.1818C35.7879 16.9545 37.8864 18.0606 39.7045 19.5C41.5379 20.9242 43.0152 22.6136 44.1364 24.5682C45.2576 26.5227 45.9394 28.6667 46.1818 31H33.4091Z" fill="#77A842"/>
</g>
</svg>
