<svg width="43" height="62" viewBox="0 0 43 62" fill="none" xmlns="http://www.w3.org/2000/svg">
<g id="LETTER B">
<path id="B" d="M3 62V15H23.038C26.5582 15 29.5143 15.4819 31.9062 16.4458C34.3131 17.4097 36.1259 18.7713 37.3444 20.5308C38.578 22.2902 39.1948 24.3633 39.1948 26.75C39.1948 28.4788 38.8187 30.0547 38.0665 31.4775C37.3294 32.9004 36.2914 34.0938 34.9525 35.0576C33.6136 36.0062 32.0491 36.6641 30.2589 37.0312V37.4902C32.2447 37.5667 34.0499 38.0793 35.6746 39.0278C37.2993 39.9611 38.593 41.2539 39.5558 42.9062C40.5186 44.5433 41 46.471 41 48.6895C41 51.2598 40.3381 53.547 39.0143 55.5513C37.7055 57.5555 35.8401 59.1314 33.4181 60.2788C30.996 61.4263 28.1077 62 24.753 62H3ZM15.5463 51.8106H21.4133C23.5194 51.8106 25.099 51.4128 26.152 50.6172C27.2051 49.8063 27.7316 48.613 27.7316 47.0371C27.7316 45.9355 27.4834 45.0023 26.9869 44.2373C26.4905 43.4723 25.7835 42.891 24.8658 42.4932C23.9632 42.0954 22.8725 41.8965 21.5938 41.8965H15.5463V51.8106ZM15.5463 34.002H20.6912C21.7894 34.002 22.7597 33.826 23.6021 33.4741C24.4446 33.1222 25.099 32.6174 25.5653 31.9595C26.0467 31.2863 26.2874 30.4678 26.2874 29.5039C26.2874 28.0505 25.7759 26.9412 24.753 26.1763C23.73 25.396 22.4363 25.0059 20.8717 25.0059H15.5463V34.002Z" fill="#77A842"/>
</g>
</svg>
