<svg width="46" height="63" viewBox="0 0 46 63" fill="none" xmlns="http://www.w3.org/2000/svg">
<g id="LETTER U">
<path id="U" d="M30.6753 15.46H43.3117V45.2781C43.3117 48.8236 42.4632 51.8918 40.7662 54.4827C39.0844 57.0584 36.7359 59.0509 33.7208 60.46C30.7056 61.8539 27.2056 62.5509 23.2208 62.5509C19.2056 62.5509 15.6905 61.8539 12.6753 60.46C9.66019 59.0509 7.3117 57.0584 5.62988 54.4827C3.96322 51.8918 3.12988 48.8236 3.12988 45.2781V15.46H15.7662V44.1872C15.7662 45.6266 16.0844 46.9145 16.7208 48.0509C17.3572 49.1721 18.2359 50.0509 19.3572 50.6872C20.4935 51.3236 21.7814 51.6418 23.2208 51.6418C24.6753 51.6418 25.9632 51.3236 27.0844 50.6872C28.2056 50.0509 29.0844 49.1721 29.7208 48.0509C30.3572 46.9145 30.6753 45.6266 30.6753 44.1872V15.46Z" fill="#77A842"/>
</g>
</svg>
