<svg width="500" height="500" viewBox="0 0 500 500" fill="none" xmlns="http://www.w3.org/2000/svg">
<g clip-path="url(#clip0_62_10)">
<rect width="500" height="500" fill="#F1F7EB"/>
<rect x="762.654" y="-442" width="179" height="1625.15" transform="rotate(45.1249 762.654 -442)" fill="#52FFCB" fill-opacity="0.35"/>
<rect x="1188.54" y="1034.27" width="88.2018" height="1797.3" transform="rotate(129.254 1188.54 1034.27)" fill="#609625"/>
<rect x="1227.89" y="-1" width="105.896" height="1902.99" transform="rotate(75.442 1227.89 -1)" fill="#7F3549"/>
<path d="M63.3597 379.953L50.1716 383.421L53.1951 334.498L69.9001 330.106L96.5939 371.215L83.4058 374.683L64.9827 344.653L64.631 344.745L63.3597 379.953ZM56.2286 362.84L81.0224 356.322L83.4264 365.466L58.6326 371.984L56.2286 362.84ZM118.25 365.522L100.93 370.076L89.0944 325.06L106.239 320.552C110.87 319.335 115.107 319.184 118.951 320.101C122.806 320.999 126.092 322.892 128.81 325.781C131.539 328.651 133.52 332.43 134.752 337.12C135.985 341.809 136.129 346.079 135.183 349.931C134.234 353.768 132.318 357.029 129.436 359.714C126.551 362.384 122.822 364.32 118.25 365.522ZM110.423 356.488L115.083 355.263C117.31 354.677 119.113 353.819 120.493 352.689C121.886 351.555 122.762 350.001 123.121 348.027C123.494 346.049 123.268 343.492 122.443 340.356C121.619 337.22 120.551 334.884 119.238 333.349C117.941 331.811 116.384 330.896 114.569 330.606C112.768 330.311 110.696 330.473 108.351 331.089L104.043 332.222L110.423 356.488ZM133.732 323.852L131.143 314.005L170.268 303.719L172.857 313.566L159.317 317.125L168.563 352.294L156.518 355.461L147.271 320.292L133.732 323.852ZM187.088 299.296L198.923 344.312L186.702 347.525L174.867 302.509L187.088 299.296ZM192.88 297.773L208.09 293.774L225.256 316.521L225.784 316.382L229.543 288.134L244.753 284.135L256.589 329.151L244.631 332.295L237.789 306.27L237.437 306.362L234.164 334.671L226.955 336.566L210.136 313.352L209.784 313.445L216.672 339.645L204.715 342.789L192.88 297.773ZM300.072 293.655C301.389 298.667 301.526 303.15 300.483 307.106C299.435 311.048 297.489 314.34 294.643 316.984C291.794 319.613 288.332 321.463 284.259 322.534C280.156 323.613 276.215 323.701 272.437 322.799C268.67 321.878 265.362 319.959 262.511 317.042C259.672 314.107 257.597 310.149 256.287 305.167C254.969 300.155 254.827 295.681 255.86 291.743C256.903 287.787 258.842 284.497 261.677 281.871C264.523 279.228 267.997 277.366 272.1 276.288C276.174 275.217 280.099 275.132 283.877 276.035C287.651 276.922 290.965 278.832 293.82 281.763C296.67 284.68 298.754 288.644 300.072 293.655ZM287.499 296.961C286.79 294.264 285.834 292.087 284.63 290.43C283.438 288.754 282.02 287.622 280.378 287.036C278.746 286.431 276.919 286.394 274.897 286.926C272.875 287.458 271.295 288.39 270.157 289.723C269.03 291.038 268.352 292.72 268.123 294.77C267.905 296.801 268.151 299.165 268.86 301.861C269.568 304.557 270.519 306.743 271.712 308.42C272.915 310.077 274.333 311.208 275.965 311.813C277.607 312.4 279.439 312.427 281.462 311.896C283.484 311.364 285.058 310.441 286.185 309.126C287.323 307.793 288.001 306.111 288.219 304.08C288.448 302.03 288.208 299.657 287.499 296.961ZM311.644 314.676L299.808 269.661L312.03 266.448L316.814 284.647L317.43 284.485L326.185 262.726L340.428 258.981L330.488 283.026L352.615 303.904L338.02 307.742L323.471 293.519L320.813 299.858L323.865 311.463L311.644 314.676ZM355.89 303.043L344.055 258.028L356.276 254.815L360.899 272.399L377.076 268.146L372.453 250.561L384.674 247.348L396.51 292.364L384.289 295.577L379.665 277.993L363.488 282.246L368.111 299.83L355.89 303.043ZM402.698 242.61L414.533 287.625L402.312 290.838L390.477 245.823L402.698 242.61ZM447.439 230.847L459.274 275.862L449.075 278.544L426.592 259.169L426.328 259.239L432.546 282.889L420.325 286.103L408.49 241.087L418.865 238.359L441.061 257.715L441.413 257.623L435.218 234.06L447.439 230.847Z" fill="#F1D4DC"/>
</g>
<defs>
<clipPath id="clip0_62_10">
<rect width="500" height="500" fill="white"/>
</clipPath>
</defs>
</svg>
