<svg width="364" height="96" viewBox="0 0 364 96" fill="none" xmlns="http://www.w3.org/2000/svg">
<g id="personal_website_adtimokhin_logo" clip-path="url(#clip0_5_11)">
<g id="Layer One">
<g id="adtimokhin_text">
<path id="Vector" d="M309.12 66.54V95.43H300.93V66.14C300.938 64.9643 300.738 63.7964 300.34 62.69C300.221 62.3483 300.081 62.0143 299.92 61.69C299.602 61.0138 299.202 60.379 298.73 59.8C298.094 58.9817 297.297 58.3012 296.39 57.8C295.515 57.3239 294.536 57.073 293.54 57.07C292.443 57.0584 291.352 57.2273 290.31 57.57C289.178 57.9351 288.085 58.4143 287.05 59C285.981 59.5577 284.976 60.2281 284.05 61C283.29 61.5835 282.602 62.2548 282 63V95.43H273.83C273.83 75.55 273.83 55.6767 273.83 35.81V33.22L279.7 30.83H282V35.83C282 43.11 282 50.39 282 57.67C282.981 56.7801 284.016 55.9518 285.1 55.19C286.293 54.3003 287.573 53.5331 288.92 52.9C291.349 51.9192 293.94 51.4004 296.56 51.37H297.56C298.355 51.3813 299.147 51.4819 299.92 51.67C300.364 51.7772 300.802 51.9107 301.23 52.07C303.746 52.9821 305.904 54.6744 307.39 56.9C307.853 57.5487 308.229 58.2546 308.51 59C308.694 59.5038 308.834 60.0224 308.93 60.55C309 62.53 309.06 64.54 309.12 66.54Z" fill="#EB8500"/>
<path id="Vector_2" d="M103.77 87.43V91.73C103.38 91.98 102.99 92.19 102.6 92.4C101.6 93.01 100.52 93.56 99.53 94.01L98.77 94.35C96.9493 95.1292 94.9793 95.4979 93 95.43H92.84C89.56 95.38 87.25 94.13 85.91 91.72C85.5569 91.0799 85.2591 90.4108 85.02 89.72C84.3001 87.4149 83.9294 85.0149 83.92 82.6C83.92 82.27 83.92 81.94 83.92 81.6V81.39C83.92 81.12 83.92 80.84 83.92 80.56C83.8267 72.3667 83.8633 64.3 84.03 56.36H77.26V55L83.88 53.18L84 40.3L89.68 38.07H91.76C91.82 43.1033 91.8833 48.1367 91.95 53.17H101.09V56.37H91.7L91.6 78.75C91.6 79.42 91.6 80.05 91.69 80.62C91.7664 82.068 92.0562 83.4967 92.55 84.86C92.9019 85.901 93.574 86.804 94.47 87.44C94.656 87.5709 94.8535 87.6847 95.06 87.78C95.9752 88.1842 96.9702 88.3756 97.97 88.34C98.9744 88.3309 99.9769 88.2507 100.97 88.1C101.41 88.1 101.81 87.98 102.16 87.91C102.715 87.8201 103.256 87.6588 103.77 87.43Z" fill="#EB8500"/>
<path id="Vector_3" d="M270.76 95.43H260.02L244.07 76.23C244.07 82.6367 244.043 89.05 243.99 95.47H236.1V33.34L242 30.83H244.33C244.33 39.2033 244.33 47.5733 244.33 55.94C244.33 62.5667 244.33 69.1967 244.33 75.83L256.37 55L264.07 52.65H264.57L252.57 73.51L270.76 95.43Z" fill="#EB8500"/>
<path id="Vector_4" d="M244.28 30.83V30.84L242.34 30.83H244.28Z" fill="#EB8500"/>
<path id="Vector_5" d="M228.28 91.72C228.39 91.61 228.5 91.5 228.59 91.39C228.499 91.5049 228.402 91.615 228.3 91.72H228.28Z" fill="#EB8500"/>
<path id="Vector_6" d="M36.46 94.61C35.9929 94.3429 35.5481 94.0386 35.13 93.7C34.8279 93.4576 34.5469 93.1899 34.29 92.9C34.0993 92.6951 33.9223 92.478 33.76 92.25C33.0357 91.2436 32.6568 90.0297 32.68 88.79L32.79 62.63C32.8247 61.0594 32.5948 59.4943 32.11 58C31.6689 56.6248 30.8638 55.3946 29.78 54.44C28.5047 53.3818 27.0182 52.608 25.42 52.17C23.227 51.5765 20.9616 51.2938 18.69 51.33C16.6483 51.3197 14.6141 51.5786 12.64 52.1C10.7976 52.5577 9.04156 53.3108 7.44 54.33C5.94668 55.2686 4.64943 56.4878 3.62 57.92C2.61826 59.3679 1.98965 61.0407 1.79 62.79H9.24C9.41921 61.6266 9.75562 60.4929 10.24 59.42C10.6738 58.4291 11.2685 57.5168 12 56.72C12.7288 55.9463 13.593 55.3125 14.55 54.85C15.5437 54.381 16.6313 54.145 17.73 54.16C18.7966 54.0745 19.8674 54.2639 20.84 54.71C21.9552 55.24 22.8653 56.122 23.43 57.22C25 60.58 21.74 65.81 19 67.77C18.0506 68.4332 17.0471 69.0152 16 69.51C15.145 69.8896 14.2704 70.2234 13.38 70.51C11.5998 71.2007 9.86912 72.0126 8.2 72.94C6.66988 73.7737 5.24053 74.7803 3.94 75.94C2.74894 77.0501 1.7756 78.3727 1.07 79.84C0.340119 81.3938 -0.0258247 83.0935 -4.42727e-06 84.81C-0.0200077 86.24 0.227581 87.6611 0.729996 89C1.18578 90.2491 1.88611 91.3948 2.79 92.37C3.71929 93.332 4.8401 94.0883 6.08 94.59C7.00982 94.9808 7.99507 95.2238 9 95.31C9.48114 95.3674 9.96545 95.3941 10.45 95.39C11.1 95.39 11.73 95.39 12.32 95.32C13.2286 95.2437 14.1268 95.0727 15 94.81C16.2674 94.4265 17.4857 93.8962 18.63 93.23C19.6883 92.5909 20.6918 91.8651 21.63 91.06C22.55 90.27 23.49 89.5 24.47 88.75C24.4552 89.2555 24.5125 89.7606 24.64 90.25C24.8317 90.962 25.1391 91.6377 25.55 92.25C25.9031 92.8144 26.3011 93.3494 26.74 93.85C27.0276 94.1642 27.3458 94.449 27.69 94.7C28.1309 95.0078 28.6121 95.2534 29.12 95.43H37.77L36.46 94.61ZM22.12 87.46C21.3768 87.996 20.602 88.4868 19.8 88.93C19.0356 89.3504 18.2275 89.6858 17.39 89.93C16.5417 90.1752 15.663 90.2997 14.78 90.3C13.9136 90.2856 13.062 90.0736 12.29 89.68C11.4808 89.2632 10.7607 88.6925 10.17 88C9.55397 87.264 9.0548 86.4377 8.68999 85.55C8.31938 84.5939 8.13606 83.5754 8.14999 82.55C8.16883 81.555 8.42238 80.5785 8.89 79.7C9.6974 78.2137 10.916 76.9916 12.4 76.18C17.22 73.06 19 72.63 21.66 70.38C22.7076 69.4775 23.6624 68.4725 24.51 67.38V85.7C23.7 86.33 22.9 86.92 22.12 87.46Z" fill="#EB8500"/>
<path id="Vector_7" d="M229.47 64.21C228.434 61.7081 226.915 59.4348 225 57.52C223.047 55.5925 220.737 54.064 218.2 53.02C215.468 51.9032 212.542 51.3357 209.59 51.35C206.599 51.3019 203.632 51.8952 200.89 53.09C198.293 54.2306 195.95 55.8796 194 57.94C192.045 60.0407 190.507 62.4944 189.47 65.17C188.367 67.9832 187.8 70.9782 187.8 74C187.763 76.8999 188.3 79.7784 189.38 82.47C190.403 85.0534 191.929 87.408 193.868 89.3975C195.808 91.387 198.123 92.9718 200.68 94.06C202.063 94.6789 203.513 95.1385 205 95.43C206.456 95.7145 207.936 95.8552 209.42 95.85C210.881 95.8643 212.339 95.7235 213.77 95.43C215.232 95.1253 216.653 94.6452 218 94C220.596 92.811 222.926 91.1104 224.85 89C226.822 86.8211 228.365 84.2903 229.4 81.54C230.474 78.6234 231.015 75.5379 231 72.43C231.04 69.6156 230.52 66.8214 229.47 64.21ZM221.07 82.92C220.58 84.7186 219.818 86.4317 218.81 88C217.914 89.3911 216.731 90.5743 215.34 91.47C214.032 92.3301 212.495 92.7761 210.93 92.75C208.791 92.7825 206.694 92.1501 204.93 90.94C203.117 89.6712 201.602 88.0231 200.49 86.11C199.22 83.8776 198.303 81.4625 197.77 78.95C197.139 76.0667 196.837 73.1213 196.87 70.17C196.865 68.1091 197.172 66.0593 197.78 64.09C198.312 62.3146 199.108 60.6292 200.14 59.09C201.035 57.7519 202.191 56.6089 203.54 55.73C204.728 54.9471 206.117 54.5267 207.54 54.52C209.904 54.4602 212.238 55.0704 214.27 56.28C216.128 57.4776 217.66 59.1163 218.73 61.05C219.931 63.258 220.756 65.6508 221.17 68.13C221.68 70.9979 221.921 73.9072 221.89 76.82C221.893 78.881 221.617 80.9329 221.07 82.92Z" fill="#EB8500"/>
<path id="Vector_8" d="M115.5 42.9C115.499 43.5447 115.373 44.183 115.13 44.78C114.79 45.644 114.196 46.3847 113.427 46.9043C112.657 47.4238 111.748 47.6978 110.82 47.69C110.203 47.6914 109.593 47.5619 109.03 47.31C108.475 47.0739 107.969 46.7346 107.54 46.31C107.1 45.8603 106.754 45.3267 106.524 44.7409C106.294 44.1552 106.184 43.5292 106.2 42.9C106.196 42.2623 106.318 41.6301 106.56 41.04C106.791 40.47 107.131 39.9503 107.56 39.51C107.993 39.0853 108.502 38.746 109.06 38.51C109.629 38.2681 110.242 38.1456 110.86 38.15C111.483 38.1476 112.1 38.2771 112.67 38.53C113.22 38.765 113.719 39.1046 114.14 39.53C114.577 39.9721 114.917 40.4998 115.14 41.08C115.377 41.6576 115.499 42.2757 115.5 42.9Z" fill="#EB8500"/>
<path id="Vector_9" d="M110.69 61.89L110.52 61.71C110.582 61.765 110.639 61.8252 110.69 61.89Z" fill="#EB8500"/>
<path id="Vector_10" d="M322.64 51.41L322.45 95.43H314.7L314.88 53.76L320.47 51.4L322.64 51.41Z" fill="#EB8500"/>
<path id="Vector_11" d="M322.07 39.6C321.655 39.1551 321.155 38.798 320.6 38.55C320.03 38.2971 319.413 38.1676 318.79 38.17C318.172 38.1667 317.559 38.2892 316.99 38.53C316.435 38.7671 315.93 39.1063 315.5 39.53C315.068 39.9718 314.728 40.4953 314.5 41.07C314.263 41.6649 314.141 42.2995 314.14 42.94C314.138 43.583 314.257 44.2207 314.49 44.82C314.721 45.3928 315.061 45.9156 315.49 46.36C315.919 46.816 316.432 47.1859 317 47.45C317.57 47.694 318.185 47.8198 318.805 47.8198C319.425 47.8198 320.039 47.694 320.61 47.45C321.732 46.9318 322.623 46.0163 323.11 44.88C323.356 44.2841 323.478 43.6446 323.47 43C323.483 42.3593 323.363 41.7228 323.12 41.13C322.88 40.5526 322.522 40.0315 322.07 39.6Z" fill="#EB8500"/>
<path id="Vector_12" d="M308.78 95.43V95.5L300.95 95.47H300.8V95.43H308.78Z" fill="#EB8500"/>
<path id="Vector_13" d="M328.26 87.38L328.25 90.73V87.38H328.26Z" fill="#EB8500"/>
<path id="Vector_14" d="M149.34 92.68L149.33 95.28V92.68H149.34Z" fill="#EB8500"/>
<path id="Vector_15" d="M363.69 87.27V95.43H355.52C355.52 92.71 355.52 89.99 355.52 87.27L355.61 66.11C355.619 64.9365 355.416 63.771 355.01 62.67C354.89 62.33 354.75 62 354.61 61.67C354.29 60.9929 353.887 60.358 353.41 59.78C352.767 58.9775 351.967 58.3141 351.06 57.83C350.186 57.3632 349.211 57.1161 348.22 57.11C347.122 57.1028 346.029 57.2647 344.98 57.59C343.866 57.9519 342.79 58.4242 341.77 59C340.699 59.5342 339.693 60.1884 338.77 60.95C337.925 61.6147 337.175 62.3919 336.54 63.26V95.43H328.37V53.75L334.22 51.34H336.57V57.76C337.588 56.8156 338.671 55.9435 339.81 55.15C341.031 54.3002 342.311 53.5382 343.64 52.87C346.052 51.9003 348.621 51.3817 351.22 51.34H352.32C353.115 51.3513 353.907 51.4519 354.68 51.64C355.11 51.74 355.55 51.88 355.99 52.03C357.243 52.4929 358.412 53.1584 359.45 54C360.502 54.8197 361.417 55.802 362.16 56.91C362.599 57.5614 362.958 58.263 363.23 59C363.418 59.5025 363.559 60.0214 363.65 60.55C363.663 69.4433 363.677 78.35 363.69 87.27Z" fill="#EB8500"/>
<path id="Vector_16" d="M308.78 95.43V95.5L300.95 95.47V95.43H308.78Z" fill="#EB8500"/>
<path id="Vector_17" d="M175.56 67.96L175.54 72.97V67.96H175.56Z" fill="#EB8500"/>
<path id="Vector_18" d="M183.71 65.09V95.43H175.54V66.24C175.552 65.073 175.362 63.9127 174.98 62.81C174.631 61.7903 174.106 60.8394 173.43 60C172.791 59.1838 171.996 58.5037 171.09 58C170.226 57.5338 169.261 57.2866 168.28 57.28C167.114 57.2765 165.953 57.4347 164.83 57.75C163.683 58.0637 162.574 58.4995 161.52 59.05C160.483 59.5886 159.522 60.2611 158.66 61.05C157.838 61.7893 157.112 62.6292 156.5 63.55C156.5 74.2167 156.5 84.8533 156.5 95.46H148.35C148.45 79.25 148.49 67.46 148.48 66.15C148.463 65.2774 148.352 64.4091 148.15 63.56C148.08 63.28 147.99 63 147.89 62.72C147.79 62.44 147.63 62.06 147.48 61.72C147.155 61.0486 146.752 60.4176 146.28 59.84C145.638 59.0431 144.842 58.3834 143.94 57.9C143.062 57.4332 142.084 57.1861 141.09 57.18C139.994 57.1756 138.905 57.3409 137.86 57.67C136.725 58.0019 135.626 58.4475 134.58 59C133.515 59.5405 132.51 60.1907 131.58 60.94C130.742 61.609 129.993 62.3819 129.35 63.24V95.43H121.18V53.73L127.06 51.35H129.38V57.8C130.405 56.8658 131.491 56.0005 132.63 55.21C133.827 54.3238 135.11 53.56 136.46 52.93C138.904 51.955 141.509 51.443 144.14 51.42H145.14C145.935 51.4365 146.726 51.537 147.5 51.72C147.945 51.8258 148.382 51.9594 148.81 52.12C150.055 52.5633 151.22 53.2049 152.26 54.02C153.312 54.8359 154.227 55.815 154.97 56.92C155.402 57.566 155.748 58.2651 156 59C156.185 59.4964 156.326 60.0085 156.42 60.53C156.48 60.44 156.52 60.35 156.58 60.26C157.302 59.043 158.206 57.9436 159.26 57C160.476 55.8898 161.819 54.9265 163.26 54.13C164.721 53.3212 166.267 52.6773 167.87 52.21C169.415 51.7656 171.013 51.5335 172.62 51.52C174.138 51.5177 175.633 51.8922 176.97 52.61C178.329 53.348 179.531 54.3432 180.51 55.54C181.553 56.818 182.362 58.2704 182.9 59.83C183.47 61.5238 183.744 63.3031 183.71 65.09Z" fill="#EB8500"/>
<path id="Vector_19" d="M115.1 51.37L115.01 72.24V95.43H106.84V53.7L112.79 51.36L115.1 51.37Z" fill="#EB8500"/>
<path id="Vector_20" d="M73 30.83L67.17 33.2C67.17 40.5333 67.1367 47.89 67.07 55.27L67 55.18C65.8315 54.0133 64.4588 53.071 62.95 52.4C61.8497 51.9049 60.6848 51.5682 59.49 51.4C58.9036 51.3182 58.3121 51.2781 57.72 51.28C54.8279 51.2536 51.9681 51.8898 49.36 53.14C46.7772 54.3875 44.4505 56.107 42.5 58.21C40.5302 60.3303 38.9494 62.7811 37.83 65.45C36.6874 68.1037 36.0922 70.9608 36.08 73.85C36.0538 76.6685 36.5034 79.4712 37.41 82.14C38.2304 84.6184 39.4682 86.9385 41.07 89C42.5629 90.9291 44.426 92.5406 46.55 93.74C48.1142 94.6201 49.8375 95.1809 51.62 95.39C52.1771 95.4621 52.7382 95.4989 53.3 95.5C53.9684 95.5086 54.6366 95.4719 55.3 95.39C55.82 95.34 56.3 95.27 56.85 95.18C58.0721 94.9321 59.2751 94.5979 60.45 94.18C61.6338 93.754 62.7809 93.2323 63.88 92.62C63.88 92.62 64.96 92.01 65.78 91.41C66.2023 91.0971 66.5821 90.7307 66.91 90.32V95.42H75L75.06 82.5V30.84L73 30.83ZM66.9 86.71C66.3697 87.3046 65.7837 87.8471 65.15 88.33C64.4729 88.846 63.7537 89.3042 63 89.7C62.2156 90.115 61.3915 90.45 60.54 90.7C59.6921 90.9285 58.8181 91.0462 57.94 91.05C56.1567 91.0301 54.4183 90.4877 52.94 89.49C51.3105 88.3994 49.9247 86.983 48.87 85.33C47.6535 83.4148 46.7394 81.3236 46.16 79.13C45.4706 76.6564 45.134 74.0978 45.16 71.53C45.156 69.187 45.4929 66.856 46.16 64.61C46.6959 62.68 47.5474 60.852 48.68 59.2C49.656 57.7768 50.9327 56.5853 52.42 55.71C53.1012 55.3122 53.8304 55.003 54.59 54.79C55.7731 54.4738 57.0083 54.4023 58.22 54.58C59.0634 54.7083 59.8847 54.954 60.66 55.31C61.0858 55.4955 61.4969 55.7127 61.89 55.96C62.6229 56.4283 63.2947 56.9859 63.89 57.62C64.8279 58.6877 65.6152 59.8787 66.23 61.16C66.5736 61.965 66.8219 62.8074 66.97 63.67L66.9 86.71Z" fill="#EB8500"/>
<path id="Vector_21" d="M75.06 82.51V95.43H75L75.06 82.51Z" fill="#EB8500"/>
</g>
<g id="top_text">
<path id="Vector_22" d="M11.2901 21.2C10.9415 21.4774 10.5702 21.7249 10.1801 21.94C9.77946 22.1579 9.36134 22.3418 8.93007 22.49C8.50275 22.6392 8.06486 22.7562 7.62007 22.84C7.19659 22.9368 6.76438 22.9904 6.33007 23C5.46792 23.0025 4.61883 22.7894 3.86007 22.38C3.09131 21.967 2.41165 21.4063 1.86007 20.73C1.2651 19.9967 0.804665 19.1638 0.500073 18.27C0.165162 17.3331 -0.00403182 16.345 7.29314e-05 15.35C-0.00243888 14.3179 0.208654 13.2965 0.620073 12.35C1.03408 11.4219 1.60588 10.5727 2.31007 9.84C3.02248 9.07738 3.87015 8.4535 4.81007 8C5.76692 7.55002 6.81274 7.32103 7.87007 7.33C8.52679 7.31638 9.17858 7.44606 9.78007 7.71C10.3311 7.96501 10.8402 8.30218 11.2901 8.71V0.85L13.3901 0H14.2501V22.65H11.2501L11.2901 21.2ZM11.2901 12.42C11.2967 11.8691 11.1842 11.3233 10.9601 10.82C10.7588 10.3531 10.4703 9.92886 10.1101 9.57C9.76358 9.23068 9.35655 8.95933 8.91007 8.77C8.43342 8.55745 7.91338 8.46026 7.39214 8.48632C6.8709 8.51238 6.36314 8.66096 5.91007 8.92C5.3758 9.23099 4.91524 9.65402 4.56007 10.16C4.1513 10.7386 3.84048 11.3805 3.64007 12.06C3.40913 12.8526 3.2946 13.6745 3.30007 14.5C3.29289 15.4059 3.4141 16.3082 3.66007 17.18C3.87734 17.9545 4.21477 18.6901 4.66007 19.36C5.04667 19.9476 5.55476 20.4454 6.15007 20.82C6.55798 21.0813 7.01676 21.253 7.49602 21.3237C7.97528 21.3944 8.46409 21.3625 8.93007 21.23C9.24124 21.1533 9.54305 21.0426 9.83007 20.9C10.1085 20.7567 10.3759 20.5929 10.6301 20.41C10.8669 20.2368 11.0848 20.039 11.2801 19.82L11.2901 12.42Z" fill="#9D815C"/>
<path id="Vector_23" d="M25.84 23C24.8624 22.9952 23.896 22.791 23 22.4C21.2407 21.6761 19.8364 20.2898 19.09 18.54C18.7034 17.6503 18.5058 16.69 18.51 15.72C18.4878 14.5905 18.6534 13.4652 19 12.39C19.3257 11.4188 19.8349 10.5191 20.5 9.74C21.1438 9.00061 21.9382 8.40736 22.83 8C23.772 7.57344 24.796 7.3584 25.83 7.37C27.622 7.34996 29.3499 8.03609 30.64 9.28C31.225 9.84899 31.6908 10.5289 32.01 11.28C32.3387 12.034 32.5089 12.8475 32.51 13.67H21.36C21.3514 14.6174 21.4828 15.561 21.75 16.47C21.976 17.2729 22.3452 18.0284 22.84 18.7C23.2842 19.302 23.8541 19.8002 24.51 20.16C25.1602 20.5138 25.8898 20.6962 26.63 20.69C27.2638 20.6911 27.893 20.5828 28.49 20.37C29.0658 20.1739 29.6111 19.8979 30.11 19.55C30.577 19.2172 30.9945 18.8199 31.35 18.37C31.6754 17.9636 31.9198 17.4985 32.07 17L32.93 17.38C32.7235 18.1553 32.3852 18.8893 31.93 19.55C31.4547 20.215 30.8893 20.8107 30.25 21.32C29.6173 21.8197 28.9126 22.2209 28.16 22.51C27.4248 22.8192 26.6374 22.9855 25.84 23ZM28.84 12.51C28.8448 11.9687 28.7428 11.4318 28.54 10.93C28.3482 10.4569 28.0663 10.0256 27.71 9.66C27.3578 9.30358 26.9402 9.01838 26.48 8.82C26.0046 8.61005 25.4897 8.50435 24.97 8.51C24.5227 8.50952 24.0812 8.61217 23.68 8.81C23.2634 9.0177 22.8901 9.30277 22.58 9.65C22.2496 10.024 21.9828 10.4497 21.79 10.91C21.5748 11.4149 21.4464 11.9524 21.41 12.5L28.84 12.51Z" fill="#9D815C"/>
<path id="Vector_24" d="M37.82 7.64999L43.12 19L48.21 7.64999H49.56L42.8 22.81H41.8L34.7 7.64999H37.82Z" fill="#9D815C"/>
<path id="Vector_25" d="M58.77 23C57.7877 23.0074 56.8144 22.8134 55.91 22.43C54.1451 21.6991 52.74 20.3011 52 18.54C51.6134 17.6503 51.4158 16.69 51.42 15.72C51.4075 14.5888 51.5832 13.4635 51.94 12.39C52.2615 11.4169 52.7712 10.5165 53.44 9.73999C54.0809 9.00175 54.8718 8.40857 55.76 7.99999C56.702 7.57343 57.726 7.35839 58.76 7.36999C60.5623 7.34202 62.3025 8.02872 63.6 9.27999C64.185 9.84899 64.6508 10.5289 64.97 11.28C65.2953 12.0347 65.4621 12.8482 65.46 13.67H54.29C54.2814 14.6174 54.4128 15.561 54.68 16.47C54.906 17.2729 55.2752 18.0284 55.77 18.7C56.2142 19.302 56.7841 19.8001 57.44 20.16C58.0902 20.5138 58.8198 20.6962 59.56 20.69C60.1938 20.6911 60.823 20.5828 61.42 20.37C61.9813 20.1737 62.5129 19.9011 63 19.56C63.467 19.2272 63.8845 18.8299 64.24 18.38C64.5808 17.9739 64.839 17.5051 65 17L65.86 17.38C65.6535 18.1553 65.3152 18.8893 64.86 19.55C64.3847 20.215 63.8193 20.8107 63.18 21.32C62.5473 21.8197 61.8427 22.2209 61.09 22.51C60.3548 22.8192 59.5674 22.9855 58.77 23ZM61.77 12.51C61.7748 11.9687 61.6728 11.4318 61.47 10.93C61.2782 10.4569 60.9963 10.0256 60.64 9.65999C60.2878 9.30357 59.8702 9.01837 59.41 8.81999C58.9346 8.61005 58.4197 8.50434 57.9 8.50999C57.4527 8.50951 57.0112 8.61217 56.61 8.80999C56.1934 9.01769 55.8201 9.30276 55.51 9.64999C55.1796 10.024 54.9128 10.4497 54.72 10.91C54.5048 11.4149 54.3764 11.9524 54.34 12.5L61.77 12.51Z" fill="#9D815C"/>
<path id="Vector_26" d="M73.08 22.65H70.08V0.85L72.22 0H73.08V22.65Z" fill="#9D815C"/>
<path id="Vector_27" d="M85.25 23C84.1639 23.0127 83.0863 22.8087 82.08 22.4C81.147 22.0218 80.295 21.4685 79.57 20.77C78.8693 20.0771 78.309 19.2554 77.92 18.35C77.5202 17.4009 77.3194 16.3798 77.33 15.35C77.3246 14.285 77.5249 13.229 77.92 12.24C78.3032 11.296 78.8633 10.4339 79.57 9.69999C80.2842 8.97073 81.1378 8.39259 82.08 7.99999C83.0835 7.57994 84.1622 7.36897 85.25 7.37999C86.33 7.3675 87.4024 7.56096 88.41 7.94999C89.3375 8.30582 90.1866 8.83911 90.91 9.51999C91.6088 10.1798 92.1696 10.9718 92.56 11.85C92.9535 12.7589 93.1543 13.7395 93.15 14.73C93.1561 15.8243 92.9559 16.9099 92.56 17.93C92.1809 18.9 91.621 19.7891 90.91 20.55C90.2017 21.3018 89.3522 21.9067 88.41 22.33C87.4165 22.7763 86.3391 23.0047 85.25 23ZM85.83 21.9C86.3984 21.9056 86.9568 21.7495 87.44 21.45C87.942 21.1334 88.3714 20.7142 88.7 20.22C89.0658 19.6738 89.3426 19.073 89.52 18.44C89.7149 17.7469 89.8125 17.03 89.81 16.31C89.8176 15.2866 89.7238 14.2649 89.53 13.26C89.3737 12.3865 89.0658 11.5472 88.62 10.78C88.2298 10.0901 87.6728 9.50902 87 9.08999C86.2527 8.66181 85.4008 8.45056 84.54 8.47999C84.0264 8.48761 83.5247 8.63637 83.09 8.90999C82.6043 9.21958 82.1833 9.62029 81.85 10.09C81.4782 10.626 81.1914 11.2163 81 11.84C80.7671 12.5363 80.6489 13.2658 80.65 14C80.6471 15.0268 80.7645 16.0505 81 17.05C81.1993 17.934 81.5368 18.7811 82 19.56C82.4123 20.2365 82.9688 20.8135 83.63 21.25C84.2874 21.6662 85.052 21.8817 85.83 21.87V21.9Z" fill="#9D815C"/>
<path id="Vector_28" d="M99.52 7.36999H100.37V10.74C100.67 10.36 101.01 9.96999 101.37 9.56999C101.737 9.16511 102.142 8.79673 102.58 8.46999C103.034 8.1445 103.528 7.87897 104.05 7.67999C104.612 7.46808 105.209 7.36295 105.81 7.36999C106.65 7.35478 107.482 7.54713 108.23 7.92999C108.945 8.29465 109.575 8.80573 110.08 9.42999C110.609 10.0986 111.012 10.8575 111.27 11.67C111.555 12.5517 111.697 13.4734 111.69 14.4C111.699 15.5636 111.524 16.7214 111.17 17.83C110.861 18.8213 110.365 19.7445 109.71 20.55C109.078 21.3081 108.286 21.9161 107.39 22.33C106.45 22.7625 105.425 22.9811 104.39 22.97C104.006 22.9735 103.621 22.9501 103.24 22.9C102.903 22.8602 102.568 22.7967 102.24 22.71C101.921 22.6221 101.61 22.5084 101.31 22.37C100.998 22.2265 100.697 22.0594 100.41 21.87V29H97.41V8.19999L99.52 7.36999ZM100.37 18.6C100.369 19.0399 100.468 19.4742 100.66 19.87C100.864 20.2543 101.143 20.5942 101.48 20.87C101.855 21.1766 102.282 21.4137 102.74 21.57C103.26 21.7516 103.809 21.8396 104.36 21.83C104.911 21.8307 105.453 21.6858 105.93 21.41C106.441 21.1023 106.88 20.6899 107.22 20.2C107.607 19.6278 107.897 18.9961 108.08 18.33C108.3 17.5492 108.408 16.7411 108.4 15.93C108.412 14.9555 108.315 13.9827 108.11 13.03C107.952 12.306 107.675 11.6132 107.29 10.98C106.992 10.4717 106.568 10.0482 106.06 9.74999C105.587 9.47348 105.048 9.33168 104.5 9.33999C104.079 9.33772 103.661 9.40184 103.26 9.52999C102.867 9.667 102.492 9.84816 102.14 10.07C101.781 10.2908 101.445 10.5489 101.14 10.84C100.849 11.1283 100.582 11.4393 100.34 11.77L100.37 18.6Z" fill="#9D815C"/>
<path id="Vector_29" d="M122.3 23C121.318 23.0062 120.345 22.8123 119.44 22.43C117.681 21.7062 116.276 20.3198 115.53 18.57C115.143 17.6803 114.946 16.72 114.95 15.75C114.937 14.6189 115.113 13.4935 115.47 12.42C115.801 11.4358 116.321 10.5256 117 9.74001C117.632 9.00515 118.413 8.4122 119.29 8.00001C120.232 7.57313 121.256 7.35808 122.29 7.37001C124.085 7.34733 125.817 8.03365 127.11 9.28001C127.695 9.849 128.161 10.5289 128.48 11.28C128.805 12.0347 128.972 12.8482 128.97 13.67H117.82C117.811 14.6175 117.943 15.561 118.21 16.47C118.436 17.273 118.805 18.0284 119.3 18.7C119.752 19.309 120.332 19.8109 121 20.17C121.65 20.5238 122.38 20.7062 123.12 20.7C123.754 20.7011 124.383 20.5929 124.98 20.38C125.556 20.1839 126.101 19.9079 126.6 19.56C127.067 19.2272 127.484 18.8299 127.84 18.38C128.164 17.9766 128.409 17.515 128.56 17.02L129.42 17.4C129.218 18.1768 128.879 18.9115 128.42 19.57C127.945 20.235 127.379 20.8307 126.74 21.34C126.109 21.8374 125.408 22.2384 124.66 22.53C123.91 22.835 123.109 22.9945 122.3 23ZM125.3 12.51C125.305 11.9687 125.203 11.4319 125 10.93C124.808 10.4569 124.526 10.0256 124.17 9.66001C123.818 9.30359 123.4 9.01839 122.94 8.82001C122.465 8.61006 121.95 8.50435 121.43 8.51001C120.983 8.50952 120.541 8.61218 120.14 8.81001C119.723 9.01771 119.35 9.30277 119.04 9.65001C118.71 10.0241 118.443 10.4497 118.25 10.91C118.035 11.4149 117.906 11.9524 117.87 12.5L125.3 12.51Z" fill="#9D815C"/>
<path id="Vector_30" d="M143.91 21.2C143.556 21.4752 143.182 21.7226 142.79 21.94C142.39 22.1597 141.972 22.3437 141.54 22.49C141.113 22.6404 140.675 22.7574 140.23 22.84C139.805 22.9268 139.373 22.9703 138.94 22.97C138.078 22.9725 137.229 22.7594 136.47 22.35C135.702 21.9353 135.023 21.3748 134.47 20.7C133.874 19.9785 133.413 19.1553 133.11 18.27C132.775 17.3331 132.606 16.345 132.61 15.35C132.606 14.3168 132.821 13.2944 133.24 12.35C133.643 11.4037 134.215 10.5394 134.93 9.8C135.64 9.04973 136.485 8.4392 137.42 8C138.377 7.55131 139.423 7.32239 140.48 7.33C141.137 7.31638 141.789 7.44606 142.39 7.71C142.943 7.96664 143.455 8.30362 143.91 8.71V0.85L146 0H146.87V22.65H143.87L143.91 21.2ZM143.91 12.42C143.917 11.8691 143.804 11.3233 143.58 10.82C143.373 10.354 143.081 9.93028 142.72 9.57C142.375 9.23383 141.972 8.96281 141.53 8.77C141.107 8.5844 140.652 8.48578 140.19 8.48C139.604 8.47725 139.028 8.62903 138.52 8.92C137.983 9.23059 137.519 9.65357 137.16 10.16C136.755 10.7392 136.447 11.3811 136.25 12.06C136.014 12.8515 135.9 13.6742 135.91 14.5C135.901 15.4066 136.026 16.3097 136.28 17.18C136.493 17.9561 136.83 18.6925 137.28 19.36C137.667 19.9476 138.175 20.4454 138.77 20.82C139.319 21.1728 139.958 21.3603 140.61 21.36C140.931 21.3603 141.251 21.3166 141.56 21.23C141.87 21.1499 142.172 21.0394 142.46 20.9C142.735 20.7567 142.999 20.5929 143.25 20.41C143.488 20.2342 143.709 20.0367 143.91 19.82V12.42Z" fill="#9D815C"/>
<path id="Vector_31" d="M158.26 0.84L160.37 0H161.25V10.47C161.522 10.0225 161.859 9.6181 162.25 9.27C162.643 8.8915 163.075 8.55625 163.54 8.27C164.001 8.00034 164.491 7.78235 165 7.62C165.463 7.45805 165.95 7.37358 166.44 7.37C167.27 7.35802 168.092 7.53947 168.84 7.9C169.563 8.23898 170.207 8.72618 170.73 9.33C171.269 9.95515 171.689 10.6736 171.97 11.45C172.274 12.276 172.426 13.15 172.42 14.03C172.427 15.2241 172.207 16.4086 171.77 17.52C171.356 18.567 170.748 19.5269 169.98 20.35C169.227 21.1574 168.323 21.8097 167.32 22.27C166.281 22.7551 165.147 23.0044 164 23C162.938 23.0057 161.88 22.8575 160.86 22.56C159.911 22.2842 159.023 21.8331 158.24 21.23L158.26 0.84ZM161.26 20.2C161.45 20.38 161.65 20.56 161.87 20.74C162.097 20.9373 162.345 21.1083 162.61 21.25C162.898 21.4058 163.203 21.5267 163.52 21.61C163.891 21.7113 164.275 21.7584 164.66 21.75C165.323 21.7553 165.976 21.5826 166.55 21.25C167.131 20.8918 167.626 20.4105 168 19.84C168.426 19.1828 168.74 18.4597 168.93 17.7C169.158 16.8183 169.269 15.9106 169.26 15C169.267 14.289 169.152 13.5822 168.92 12.91C168.708 12.2929 168.39 11.7176 167.98 11.21C167.599 10.7398 167.126 10.3519 166.59 10.07C166.063 9.791 165.476 9.64671 164.88 9.65C164.541 9.65511 164.205 9.70556 163.88 9.8C163.533 9.89694 163.198 10.031 162.88 10.2C162.561 10.3591 162.26 10.55 161.98 10.77C161.726 10.976 161.501 11.2148 161.31 11.48L161.26 20.2Z" fill="#9D815C"/>
<path id="Vector_32" d="M176.09 26.19C176.224 26.2451 176.354 26.3085 176.48 26.38C176.632 26.4665 176.789 26.5434 176.95 26.61C177.132 26.6848 177.319 26.745 177.51 26.79C177.736 26.8441 177.968 26.871 178.2 26.87C178.514 26.8687 178.82 26.7748 179.08 26.6C179.361 26.4217 179.611 26.1988 179.82 25.94C180.051 25.6742 180.256 25.3861 180.43 25.08C180.6 24.77 180.75 24.47 180.87 24.2L181.87 21.94L174.21 7.64999H177.6L183.37 18.49L188.1 7.64999H189.7L182 25.28C181.709 25.9592 181.336 26.6005 180.89 27.19C180.51 27.6887 180.066 28.1358 179.57 28.52C179.127 28.8547 178.634 29.1179 178.11 29.3C177.649 29.4707 177.162 29.5587 176.67 29.56C176.33 29.5597 175.993 29.5057 175.67 29.4C175.367 29.3058 175.083 29.1603 174.83 28.97L176.09 26.19Z" fill="#9D815C"/>
</g>
</g>
</g>
<defs>
<clipPath id="clip0_5_11">
<rect width="363.69" height="95.85" fill="white"/>
</clipPath>
</defs>
</svg>
