<svg width="100" height="100" viewBox="0 0 251 251" fill="none" xmlns="http://www.w3.org/2000/svg">
<g id="cross-23 1">
<path id="Vector" d="M198.707 41.8317C201.702 41.8317 204.194 42.8256 206.181 44.8135C208.169 46.8015 209.163 49.2931 209.163 52.2883C209.163 55.23 208.156 57.7082 206.141 59.7229L140.284 125.495L206.141 191.267C208.156 193.282 209.163 195.76 209.163 198.702C209.163 201.697 208.169 204.188 206.181 206.176C204.194 208.164 201.702 209.158 198.707 209.158C195.765 209.158 193.287 208.151 191.272 206.136L125.5 140.279L59.728 206.136C57.7133 208.151 55.2351 209.158 52.2933 209.158C49.2981 209.158 46.8065 208.164 44.8186 206.176C42.8306 204.188 41.8367 201.697 41.8367 198.702C41.8367 195.76 42.844 193.282 44.8587 191.267L110.716 125.495L44.8587 59.7229C42.844 57.7082 41.8367 55.23 41.8367 52.2883C41.8367 49.2931 42.8306 46.8015 44.8186 44.8135C46.8065 42.8256 49.2981 41.8317 52.2933 41.8317C55.2351 41.8317 57.7133 42.839 59.728 44.8537L125.5 110.711L191.272 44.8537C193.287 42.839 195.765 41.8317 198.707 41.8317Z" fill="white" fill-opacity="0.29"/>
</g>
</svg>
